<svg width="32" height="33" viewBox="0 0 32 33" fill="none" xmlns="http://www.w3.org/2000/svg">
<g clip-path="url(#clip0_1_31)">
<path d="M14.144 8.86402C14.144 9.95202 13.76 10.992 12.992 11.984C12.256 12.944 11.44 13.712 10.544 14.288C9.68001 14.864 8.86401 15.456 8.09601 16.064C7.36001 16.672 6.99201 17.2 6.99201 17.648C6.99201 18.576 7.64801 19.472 8.96001 20.336C10.304 21.2 11.808 21.632 13.472 21.632C15.136 21.632 16.704 21.344 18.176 20.768C19.648 20.16 20.832 19.232 21.728 17.984C21.824 14.88 21.872 11.936 21.872 9.15202C21.872 6.33602 21.664 4.57601 21.248 3.87201H12.368C14 5.5 14.144 7.13602 14.144 8.86402ZM25.184 8.14402L24.992 27.92C24.992 30.096 26.648 30.424 27 31C26.648 31.128 24.816 32.24 24.464 32.24C22.672 32.24 21.776 30.8 21.776 27.92C21.776 26.128 21.888 24.24 22.112 22.256C20.192 23.792 17.84 24.56 15.056 24.56C12.272 24.56 9.69601 23.568 7.32801 21.584C4.99201 19.568 3.82401 17.632 3.82401 15.776C3.82401 14.816 5.04001 13.6 7.47201 12.128C8.40001 11.584 9.24801 10.864 10.016 9.96802C10.784 9.07202 11.168 8.04802 11.168 6.89602C11.168 5.74402 10.736 4.73602 9.87201 3.87201H3.68001C1.47201 3.87201 0.368011 3.08802 0.368011 1.52002C0.368011 1.20002 0.400011 0.944013 0.464011 0.752014H28.352C30.56 0.752014 31.664 1.52002 31.664 3.05602C31.664 3.47201 31.616 3.74401 31.52 3.87201H23.936C24.768 4.44801 25.184 5.87201 25.184 8.14402Z" fill="#CCCCCC"/>
</g>
<defs>
<clipPath id="clip0_1_31">
<rect width="32" height="33" fill="white"/>
</clipPath>
</defs>
</svg>
